<svg width="51" height="29" viewBox="0 0 51 29" fill="none" xmlns="http://www.w3.org/2000/svg">
<path d="M9.47999 28.48C7.58665 28.48 5.83999 28.1333 4.23999 27.44C2.66665 26.72 1.37332 25.7067 0.359985 24.4L3.95999 20.08C4.73332 21.0933 5.54665 21.8667 6.39999 22.4C7.25332 22.9067 8.17332 23.16 9.15999 23.16C11.8 23.16 13.12 21.6133 13.12 18.52V5.2H3.27999V0H19.56V18.16C19.56 21.6267 18.7067 24.2133 17 25.92C15.2933 27.6267 12.7867 28.48 9.47999 28.48Z" fill="#DA2535"/>
<path d="M25.9606 28V0H38.0806C40.5873 0 42.7473 0.413334 44.5606 1.24C46.3739 2.04 47.7739 3.2 48.7606 4.72C49.7473 6.24 50.2406 8.05333 50.2406 10.16C50.2406 12.24 49.7473 14.04 48.7606 15.56C47.7739 17.08 46.3739 18.2533 44.5606 19.08C42.7473 19.88 40.5873 20.28 38.0806 20.28H29.5606L32.4406 17.36V28H25.9606ZM32.4406 18.08L29.5606 15H37.7206C39.7206 15 41.2139 14.5733 42.2006 13.72C43.1873 12.8667 43.6806 11.68 43.6806 10.16C43.6806 8.61334 43.1873 7.41333 42.2006 6.56C41.2139 5.70667 39.7206 5.28 37.7206 5.28H29.5606L32.4406 2.2V18.08Z" fill="#DA2535"/>
</svg>
